<svg xmlns="http://www.w3.org/2000/svg" viewBox="0 0 129.98 109.75"><defs><style>.cls-1{fill:#101c26;}.cls-2{fill:#287bb7;}</style></defs><g id="Layer_2" data-name="Layer 2"><g id="Layer_1-2" data-name="Layer 1"><path class="cls-1" d="M57,103.45a11.09,11.09,0,0,0-.36,4.77c.11.87-.27,1.15-1,1.23a18.77,18.77,0,0,1-2.46.3q-18.78-.18-37.55-.43c-1.93,0-3.94.24-5.76-.44A13.26,13.26,0,0,1,1.4,99.22c-.9-3.46-.57-7-.62-10.58C.66,79.36.74,70.07.44,60.8.13,51.36.5,41.93.27,32.5c0-1.65,0-3.31-.2-4.94-.44-3.74,1.21-6.34,4.15-8.42,5-3.5,9.84-7.1,14.79-10.6,1.81-1.28,3.7-2.49,5.45-3.82C28,2,31.9,2.28,35.9,2.7c3.67.38,7.35-.06,11,.06C54,3,61.11,3.22,68.2,3.19c2.67,0,5.32,0,8,.25,1.93.14,2.91,1,2.94,2.93.06,4,.12,8,.24,12,0,.75-.33.8-.87.93a18.27,18.27,0,0,0-4.06,1.07c-1,.48-1.33.29-1.36-.87-.09-2.66-.41-5.32-.48-8,0-1.63-.84-1.91-2.25-2-12-.61-24.1-.19-36.13-1-1.55-.11-1.91.24-1.87,1.77.13,5.22.12,10.44.14,15.66,0,3.05-.39,3.59-3.53,3.58-6.56,0-13.12-.17-19.68-.31-2.84-.07-2.86-.12-2.82,2.74q.3,25.91.64,51.83c.06,4.27.23,8.54.44,12.8a6.24,6.24,0,0,0,6.24,6.11c10.7.19,21.4.42,32.1.48C49.55,103.24,53.22,103.23,57,103.45ZM26,12.09a38.82,38.82,0,0,0-6.74,4.09c-2.48,2.08-5.28,3.76-7.74,5.89-.3.26-.61.42-.63.85s.19.35.48.34a73.31,73.31,0,0,1,14.05.52c.7.1.76-.3.68-.79C25.53,19.44,26.78,15.89,26,12.09Z"/><path class="cls-1" d="M110.06,65.36a24.9,24.9,0,0,0,.72-8.36,32.06,32.06,0,0,1,.45-4.86c0-.12,0-.29.11-.35,1.35-1.08,2.91-.67,4.4-.58a1.76,1.76,0,0,1,1.84,1.64c.59,9,0,17.58-7.13,24.58A52.82,52.82,0,0,1,99,86.14a19.11,19.11,0,0,1-9.58,2.3c-1.14,0-1.33.27-1.41,1.36-.2,2.92.4,5.85-.23,8.76-.19.88.39,1.27,1.38,1.24,3.38-.11,6.76-.17,10.14-.16,4.33,0,5.94,1.79,5.83,6.16,0,1-.36,1.42-1.26,1.51-1.13.12-2.27.29-3.41.32-11.35.25-22.69.42-34,.76-2,.06-2.65-.69-2.75-2.42a16.27,16.27,0,0,1,0-1.71c.22-3.91,1.39-4.89,5.35-4.55s7.76-.15,11.62.52c.73.13,1-.28,1-1-.14-3.21-.31-6.43-.37-9.64,0-1.33-1.05-1.41-1.81-1.54-8.91-1.5-14.86-7-19.31-14.39C56,67,55.85,59.58,56.59,52.09c.12-1.14.61-1.69,1.94-1.77,4.87-.29,4.93-.31,4.69,4.57-.22,4.53-.36,9,1.46,13.34,3.6,8.64,13.94,14.76,23.13,14,6.35-.5,11.94-2.58,16.34-7.25A25.59,25.59,0,0,0,110.06,65.36Z"/><path class="cls-1" d="M105.24,44.51c-5.54-.93-11-.35-16.48-.43-6.61-.1-13.22-.14-19.84-.21-.62,0-1.23.09-1.34-.9-.35-3.4,0-6.84,1.77-9.64,3.77-5.88,9.25-9.11,16.45-8.86a21,21,0,0,1,17.49,9.58C105.44,37.19,105.66,40.81,105.24,44.51ZM74.91,36.8c-.71,1.38-.2,1.87,1.21,1.87,6.1,0,12.2.06,18.3.06,1.14,0,2.79.59,3.26-.54s-.61-2.37-1.47-3.36c-3.24-3.74-11.16-5.45-16-3.48A10.46,10.46,0,0,0,74.91,36.8Z"/><path class="cls-2" d="M104.6,2.72c8.81,3.51,16,9,20.56,17.46a37,37,0,0,1,4.14,25.18c-.48,2.47-1.27,3.31-2.84,3.07-2.54-.4-3.32-1.48-3.19-4,.2-3.91,1-7.79.42-11.74-1.33-8.46-6.24-14.52-12.85-19.46a46.36,46.36,0,0,0-8.26-4.83A23.23,23.23,0,0,0,92,6.52a13,13,0,0,1-4.58-1.06c-1.53-.52-1.38-2-1.32-3.25S87,.31,88.24.15c3.55-.46,7,.22,10.46.85A29.74,29.74,0,0,1,104.6,2.72Z"/><path class="cls-1" d="M79.53,77.46c-4.71-1.76-8-5.16-10.34-9.42a10.55,10.55,0,0,1-1-5c0-1.37,1.17-1.44,2.06-1.27,4.29.83,8.6.3,12.9.34,5.66,0,11.32,0,17,0,1.27,0,2.54.17,3.81.2s1.58.79,1.32,1.9A13,13,0,0,1,103.43,69C97.74,76.92,90,81,79.53,77.46Zm2.32-5.74c5.33,2,12,.35,15-3.43.25-.32.84-.55.59-1.09s-.81-.33-1.2-.34c-6.34-.09-12.69-.13-19-.2-1.19,0-1.13.5-.54,1.23A14.7,14.7,0,0,0,81.85,71.72Z"/><path class="cls-1" d="M69.32,91A1.12,1.12,0,0,1,70,92.15c0,.69-.27,1.2-.89,1.27-3.53.45-6.8,2.26-10.43,2-7.78-.46-15.55.12-23.33-.07-6.07-.15-12.13-.15-18.2-.27-2.15,0-1.7-1.95-1.9-3.17-.23-1.45.94-1.78,2.13-1.78q10.17,0,20.35,0c7.15,0,14.3-.12,21.44.09C62.44,90.37,65.77,90.17,69.32,91Z"/><path class="cls-2" d="M99.41,13c8.55,3.33,14.51,7.81,17.51,15.48A24.17,24.17,0,0,1,118,40.89c-.26,1.82-1.5,2.25-3.08,2s-2.78-.66-2.54-2.62c.14-1.19.21-2.4.24-3.6a14.58,14.58,0,0,0-4.28-10.57C103.89,21.4,98.79,18,92,17.54a3.22,3.22,0,0,1-2.52-4.69c.44-.94,1.23-1,2-1C94.66,11.81,97.69,12.15,99.41,13Z"/><path class="cls-1" d="M15.63,42.69c-1.41-.76-1.08-2.18-1-3.42a1.73,1.73,0,0,1,2-1.77c8.41-.12,16.83.07,25.24,0,5.45,0,10.9.49,16.35,0,1.2-.11,1.77.23,1.56,1.75-.53,3.81-.42,3.83-4.28,3.87q-8.52.09-17-.25c-6.44-.26-12.89,0-19.33.15A10.23,10.23,0,0,1,15.63,42.69Z"/><path class="cls-1" d="M61.61,85.08Q45.74,85,29.86,84.86c-4.16,0-8.33,0-12.49.1-1.7.06-2.24-.76-2.38-2.19-.32-3.14-.19-3.21,3-3.2,10.89,0,21.78,0,32.67,0,2.1,0,4.19.06,6.29.09.31,0,.62-.09.77.34C58.43,82.1,60.18,83.32,61.61,85.08Z"/><path class="cls-1" d="M68,53.66c5.1,1,10.09.49,15,.55,7.3.08,14.6.36,21.89-.2.65,0,.76.17.8.67s.15.88.18,1.33c.27,4,.18,4-3.69,3.66-9.48-.9-19-.48-28.45-.2-1.31,0-2.45.83-3.88.71s-2-.71-1.94-2.12S68,55.14,68,53.66Z"/><path class="cls-1" d="M53.45,74.32c-12.34.21-24.41.24-36.48.14-1.92,0-2.3-1-2.25-2.64s.21-2.58,2.17-2.54c4.65.1,9.3,0,14,0,6.49,0,13-.32,19.48,0,1,0,1.52.17,1.61,1.3C52,71.91,52.85,73,53.45,74.32Z"/><path class="cls-1" d="M50.51,48.39c-.47,1.26-1.12,2.22-1.11,3.17,0,2.4-1.2,2.26-3.07,2.21-7.64-.2-15.29-.13-22.93-.17-2.22,0-4.44-.05-6.66-.07-1.83,0-2.08-.48-2.21-3.3-.08-1.62.64-2.21,2.13-2.21,7.64,0,15.28-.07,22.92.21C43.13,48.37,46.69,48.34,50.51,48.39Z"/><path class="cls-1" d="M15.78,64c-1.66-.58-1.09-1.84-1.19-2.9a1.83,1.83,0,0,1,1.76-2.26,32.67,32.67,0,0,1,5.31-.35c7.88.45,15.76.45,23.64.62l.76,0c3.07.16,3.76.86,3.56,3.78-.08,1.24-1,1.26-2,1.26-3.07,0-6.13,0-9.19,0-7.1.19-14.2-.09-21.31-.13C16.66,64.11,16.15,64.05,15.78,64Z"/><path class="cls-1" d="M105,46.56c.73.42.58,1.21.68,1.85.56,3.42.55,3.29-2.85,3.18-6.36-.19-12.73-.23-19.1-.28a134.88,134.88,0,0,0-14.21.52c-1.41.13-2-.24-2-1.83,0-3.61-.14-3.57,3.36-3.28a68.17,68.17,0,0,0,7.16.21c5.73-.12,11.47.25,17.2-.11a67.7,67.7,0,0,1,8.78-.18A6.94,6.94,0,0,0,105,46.56Z"/></g></g></svg>