<svg width="83" height="87" viewBox="0 0 83 87" fill="none" xmlns="http://www.w3.org/2000/svg">
<path fill-rule="evenodd" clip-rule="evenodd" d="M48.8236 0.659016C47.2207 1.93512e-07 45.1883 0 41.1236 0C37.0588 0 35.0265 1.93512e-07 33.4235 0.659016C31.2859 1.53772 29.5877 3.22314 28.7023 5.34446C28.2982 6.31286 28.14 7.43904 28.0781 9.08177C27.9871 11.4959 26.7397 13.7305 24.6316 14.9384C22.5235 16.1462 19.9499 16.1011 17.7978 14.9723C16.3333 14.2041 15.2715 13.7769 14.2244 13.6401C11.9305 13.3404 9.6107 13.9573 7.7752 15.3551C6.39856 16.4035 5.38237 18.1502 3.35005 21.6437C1.31772 25.1372 0.301577 26.8839 0.0750948 28.5913C-0.226925 30.8678 0.39469 33.1701 1.80315 34.9918C2.44602 35.8234 3.34948 36.5221 4.75171 37.3965C6.81313 38.6821 8.13951 40.8721 8.13938 43.288C8.13925 45.7039 6.81291 47.8934 4.75171 49.1786C3.34927 50.0534 2.44563 50.7526 1.80272 51.5841C0.394257 53.4057 -0.227315 55.7077 0.0746623 57.9842C0.301145 59.6915 1.31733 61.4386 3.34961 64.932C5.38194 68.4253 6.39813 70.1724 7.77477 71.2204C9.61027 72.6182 11.9301 73.235 14.2239 72.9355C15.271 72.7987 16.3328 72.3714 17.7971 71.6035C19.9493 70.4746 22.5232 70.4295 24.6314 71.6373C26.7396 72.8454 27.9871 75.08 28.0781 77.4946C28.14 79.1369 28.2982 80.2633 28.7023 81.2316C29.5877 83.3527 31.2859 85.0384 33.4235 85.9171C35.0265 86.5759 37.0588 86.5759 41.1236 86.5759C45.1883 86.5759 47.2207 86.5759 48.8236 85.9171C50.9612 85.0384 52.6594 83.3527 53.5446 81.2316C53.9489 80.2633 54.1074 79.1369 54.1693 77.4941C54.2602 75.08 55.5073 72.8454 57.6154 71.6373C59.7235 70.4291 62.2974 70.4746 64.4497 71.6035C65.9142 72.3714 66.9756 72.7983 68.0227 72.935C70.3165 73.235 72.6363 72.6182 74.4718 71.2204C75.8487 70.172 76.8647 68.4253 78.8971 64.9315C80.9295 61.4382 81.9454 59.6915 82.1723 57.9842C82.474 55.7077 81.8524 53.4052 80.4442 51.5837C79.8009 50.7521 78.8975 50.053 77.495 49.1786C75.4341 47.8934 74.1077 45.7034 74.1077 43.2875C74.1077 40.8716 75.4341 38.6826 77.495 37.3973C78.898 36.5225 79.8014 35.8238 80.4446 34.9918C81.8528 33.1704 82.4744 30.8681 82.1727 28.5916C81.9459 26.8842 80.9299 25.1375 78.8975 21.644C76.8651 18.1505 75.8492 16.4038 74.4722 15.3554C72.6368 13.9576 70.317 13.3407 68.0231 13.6404C66.976 13.7772 65.9142 14.2043 64.4502 14.9724C62.2979 16.1014 59.724 16.1465 57.6159 14.9385C55.5077 13.7306 54.2602 11.4958 54.1688 9.08156C54.1069 7.43895 53.9489 6.31282 53.5446 5.34446C52.6594 3.22314 50.9612 1.53772 48.8236 0.659016ZM41.1236 56.2744C48.3505 56.2744 54.2087 50.4604 54.2087 43.288C54.2087 36.1156 48.3505 30.3016 41.1236 30.3016C33.8966 30.3016 28.0383 36.1156 28.0383 43.288C28.0383 50.4604 33.8966 56.2744 41.1236 56.2744Z" fill="black" fill-opacity="0.5"/>
</svg>
